<svg xmlns="http://www.w3.org/2000/svg" viewBox="0 0 80 80" fill="none">
  <defs><radialGradient id="b29" cx="50%" cy="40%" r="50%"><stop offset="0%" stop-color="#E0E7FF"/><stop offset="100%" stop-color="#A5B4FC"/></radialGradient></defs>
  <circle cx="40" cy="40" r="40" fill="url(#b29)"/>
  <!-- N Seoul Tower -->
  <!-- Mountain base -->
  <path d="M10 70c10-20 20-24 30-24s20 4 30 24H10z" fill="#86EFAC"/>
  <!-- Tower base/building -->
  <rect x="32" y="34" width="16" height="16" rx="2" fill="#E5E7EB"/>
  <!-- Observation deck -->
  <ellipse cx="40" cy="34" rx="14" ry="5" fill="#D1D5DB"/>
  <ellipse cx="40" cy="33" rx="14" ry="5" fill="#E5E7EB"/>
  <!-- Tower shaft -->
  <rect x="38" y="10" width="4" height="24" fill="#D1D5DB"/>
  <!-- Antenna -->
  <line x1="40" y1="10" x2="40" y2="4" stroke="#9CA3AF" stroke-width="1.5"/>
  <circle cx="40" cy="4" r="1.5" fill="#EF4444"/>
  <!-- Digital display area -->
  <rect x="34" y="36" width="12" height="6" rx="1" fill="#1E1B4B"/>
  <!-- Heart lock -->
  <path d="M38 40c-1-1-2-2-1-3s2-1 3 0c1-1 2-1 3 0s0 2-1 3l-2 2-2-2z" fill="#F472B6"/>
  <!-- Eyes -->
  <circle cx="36" cy="30" r="2" fill="white"/><circle cx="36.3" cy="30.3" r="1.2" fill="#1A1A1A"/><circle cx="36.8" cy="30" r="0.5" fill="white"/>
  <circle cx="44" cy="30" r="2" fill="white"/><circle cx="44.3" cy="30.3" r="1.2" fill="#1A1A1A"/><circle cx="44.8" cy="30" r="0.5" fill="white"/>
  <!-- Smile -->
  <path d="M38 33c1 1 3 1 4 0" stroke="#4338CA" stroke-width="0.7" stroke-linecap="round" fill="none"/>
</svg>