<svg xmlns="http://www.w3.org/2000/svg" viewBox="0 0 80 80" fill="none">
  <defs><radialGradient id="b32" cx="50%" cy="40%" r="50%"><stop offset="0%" stop-color="#FCE7F3"/><stop offset="100%" stop-color="#F9A8D4"/></radialGradient></defs>
  <circle cx="40" cy="40" r="40" fill="url(#b32)"/>
  <!-- Taj Mahal -->
  <!-- Main dome -->
  <path d="M26 44c0-16 6-26 14-26s14 10 14 26" fill="white"/>
  <!-- Dome finial -->
  <line x1="40" y1="18" x2="40" y2="14" stroke="#D4A06A" stroke-width="1"/>
  <circle cx="40" cy="13" r="1.5" fill="#FBBF24"/>
  <!-- Main building -->
  <rect x="20" y="44" width="40" height="20" fill="white" stroke="#E5E7EB" stroke-width="0.3"/>
  <!-- Entrance arch -->
  <path d="M34 64V50c0-4 2-6 6-6s6 2 6 6v14" fill="#E0E7FF"/>
  <!-- Minarets -->
  <rect x="10" y="30" width="4" height="34" fill="white" stroke="#E5E7EB" stroke-width="0.3"/>
  <path d="M10 30c0-4 1-6 2-6s2 2 2 6" fill="white"/>
  <circle cx="12" cy="24" r="1" fill="#FBBF24"/>
  <rect x="66" y="30" width="4" height="34" fill="white" stroke="#E5E7EB" stroke-width="0.3"/>
  <path d="M66 30c0-4 1-6 2-6s2 2 2 6" fill="white"/>
  <circle cx="68" cy="24" r="1" fill="#FBBF24"/>
  <!-- Reflecting pool -->
  <rect x="24" y="68" width="32" height="4" rx="1" fill="#BAE6FD" opacity="0.5"/>
  <!-- Eyes -->
  <circle cx="36" cy="50" r="2" fill="white"/><circle cx="36.3" cy="50.3" r="1.2" fill="#1A1A1A"/><circle cx="36.8" cy="50" r="0.5" fill="white"/>
  <circle cx="44" cy="50" r="2" fill="white"/><circle cx="44.3" cy="50.3" r="1.2" fill="#1A1A1A"/><circle cx="44.8" cy="50" r="0.5" fill="white"/>
  <!-- Smile -->
  <path d="M38 54c1 1 3 1 4 0" stroke="#9D174D" stroke-width="0.7" stroke-linecap="round" fill="none"/>
</svg>