<svg xmlns="http://www.w3.org/2000/svg" viewBox="0 0 80 80" fill="none">
  <defs><radialGradient id="b35" cx="50%" cy="40%" r="50%"><stop offset="0%" stop-color="#E0E7FF"/><stop offset="100%" stop-color="#A5B4FC"/></radialGradient></defs>
  <circle cx="40" cy="40" r="40" fill="url(#b35)"/>
  <!-- Burj Khalifa (Dubai) -->
  <!-- Main tower -->
  <rect x="37" y="6" width="6" height="64" fill="#D1D5DB"/>
  <!-- Setback tiers -->
  <rect x="34" y="22" width="12" height="48" fill="#E5E7EB"/>
  <rect x="31" y="36" width="18" height="34" fill="#D1D5DB"/>
  <rect x="28" y="48" width="24" height="22" fill="#E5E7EB"/>
  <!-- Spire -->
  <line x1="40" y1="6" x2="40" y2="2" stroke="#9CA3AF" stroke-width="1"/>
  <!-- Window lines -->
  <line x1="38" y1="10" x2="38" y2="68" stroke="#9CA3AF" stroke-width="0.3"/>
  <line x1="40" y1="10" x2="40" y2="68" stroke="#9CA3AF" stroke-width="0.3"/>
  <line x1="42" y1="10" x2="42" y2="68" stroke="#9CA3AF" stroke-width="0.3"/>
  <!-- Horizontal floor lines -->
  <line x1="28" y1="52" x2="52" y2="52" stroke="#9CA3AF" stroke-width="0.3"/>
  <line x1="28" y1="56" x2="52" y2="56" stroke="#9CA3AF" stroke-width="0.3"/>
  <line x1="28" y1="60" x2="52" y2="60" stroke="#9CA3AF" stroke-width="0.3"/>
  <line x1="31" y1="40" x2="49" y2="40" stroke="#9CA3AF" stroke-width="0.3"/>
  <line x1="31" y1="44" x2="49" y2="44" stroke="#9CA3AF" stroke-width="0.3"/>
  <!-- Glowing lights -->
  <rect x="36" y="30" width="8" height="2" rx="0.5" fill="#93C5FD" opacity="0.5"/>
  <rect x="33" y="42" width="14" height="2" rx="0.5" fill="#93C5FD" opacity="0.5"/>
  <!-- Eyes -->
  <circle cx="36" cy="50" r="2" fill="white"/><circle cx="36.3" cy="50.3" r="1.2" fill="#1A1A1A"/><circle cx="36.8" cy="50" r="0.5" fill="white"/>
  <circle cx="44" cy="50" r="2" fill="white"/><circle cx="44.3" cy="50.3" r="1.2" fill="#1A1A1A"/><circle cx="44.8" cy="50" r="0.5" fill="white"/>
  <!-- Smile -->
  <path d="M38 54c1 1 3 1 4 0" stroke="#4338CA" stroke-width="0.7" stroke-linecap="round" fill="none"/>
</svg>