<svg xmlns="http://www.w3.org/2000/svg" viewBox="0 0 80 80" fill="none">
  <defs><radialGradient id="b5" cx="50%" cy="40%" r="50%"><stop offset="0%" stop-color="#A7F3D0"/><stop offset="100%" stop-color="#34D399"/></radialGradient></defs>
  <circle cx="40" cy="40" r="40" fill="url(#b5)"/>
  <!-- 용 (Dragon) -->
  <ellipse cx="40" cy="44" rx="22" ry="20" fill="#22C55E"/>
  <!-- Horns -->
  <path d="M22 20l-4-12 8 6z" fill="#F59E0B"/><path d="M58 20l4-12-8 6z" fill="#F59E0B"/>
  <!-- Spikes on head -->
  <path d="M32 18l2-6 2 6" fill="#16A34A"/><path d="M38 16l2-7 2 7" fill="#16A34A"/><path d="M44 18l2-6 2 6" fill="#16A34A"/>
  <!-- Lighter belly/face -->
  <ellipse cx="40" cy="50" rx="14" ry="10" fill="#BBF7D0"/>
  <!-- Eyes -->
  <circle cx="32" cy="40" r="4.5" fill="white"/><circle cx="32.5" cy="40.5" r="2.5" fill="#DC2626"/><ellipse cx="32.5" cy="40.5" rx="1" ry="2.5" fill="#1A1A1A"/><circle cx="34" cy="39" r="1" fill="white"/>
  <circle cx="48" cy="40" r="4.5" fill="white"/><circle cx="48.5" cy="40.5" r="2.5" fill="#DC2626"/><ellipse cx="48.5" cy="40.5" rx="1" ry="2.5" fill="#1A1A1A"/><circle cx="50" cy="39" r="1" fill="white"/>
  <!-- Nostrils -->
  <circle cx="36" cy="50" r="2" fill="#16A34A"/><circle cx="44" cy="50" r="2" fill="#16A34A"/>
  <!-- Mouth -->
  <path d="M34 55c3 2 9 2 12 0" stroke="#16A34A" stroke-width="1" stroke-linecap="round" fill="none"/>
  <!-- Small fangs -->
  <path d="M35 55v2" stroke="white" stroke-width="1.2" stroke-linecap="round"/>
  <path d="M45 55v2" stroke="white" stroke-width="1.2" stroke-linecap="round"/>
</svg>
