<svg xmlns="http://www.w3.org/2000/svg" viewBox="0 0 80 80" fill="none">
  <defs><radialGradient id="b12" cx="50%" cy="40%" r="50%"><stop offset="0%" stop-color="#D1FAE5"/><stop offset="100%" stop-color="#6EE7B7"/></radialGradient></defs>
  <circle cx="40" cy="40" r="40" fill="url(#b12)"/>
  <!-- 돼지 (Pig) -->
  <ellipse cx="40" cy="44" rx="23" ry="20" fill="#F9A8D4"/>
  <!-- Ears -->
  <path d="M16 24l6 14 8-6z" fill="#F9A8D4"/><path d="M18 26l4 10 5-5z" fill="#EC4899"/>
  <path d="M64 24l-6 14-8-6z" fill="#F9A8D4"/><path d="M62 26l-4 10-5-5z" fill="#EC4899"/>
  <!-- Snout -->
  <ellipse cx="40" cy="50" rx="10" ry="7" fill="#FBCFE8"/>
  <!-- Nostrils -->
  <ellipse cx="36" cy="50" rx="2.5" ry="2" fill="#EC4899"/><ellipse cx="44" cy="50" rx="2.5" ry="2" fill="#EC4899"/>
  <!-- Eyes -->
  <circle cx="32" cy="40" r="3.5" fill="white"/><circle cx="32.5" cy="40.5" r="2.2" fill="#1A1A1A"/><circle cx="33.5" cy="39.5" r="0.9" fill="white"/>
  <circle cx="48" cy="40" r="3.5" fill="white"/><circle cx="48.5" cy="40.5" r="2.2" fill="#1A1A1A"/><circle cx="49.5" cy="39.5" r="0.9" fill="white"/>
  <!-- Mouth -->
  <path d="M36 56c2 1 6 1 8 0" stroke="#EC4899" stroke-width="0.8" stroke-linecap="round" fill="none"/>
  <circle cx="26" cy="48" r="4" fill="#F472B6" opacity="0.25"/>
  <circle cx="54" cy="48" r="4" fill="#F472B6" opacity="0.25"/>
</svg>
