<svg xmlns="http://www.w3.org/2000/svg" viewBox="0 0 80 80" fill="none">
  <defs><radialGradient id="b6" cx="50%" cy="40%" r="50%"><stop offset="0%" stop-color="#DDD6FE"/><stop offset="100%" stop-color="#A78BFA"/></radialGradient></defs>
  <circle cx="40" cy="40" r="40" fill="url(#b6)"/>
  <!-- 뱀 (Snake) -->
  <!-- Coiled body -->
  <path d="M20 60c0-10 8-18 20-18s20 8 20 18" fill="#22C55E" stroke="#16A34A" stroke-width="1"/>
  <path d="M24 60c0-8 7-14 16-14s16 6 16 14" fill="#BBF7D0"/>
  <!-- Head -->
  <ellipse cx="40" cy="36" rx="16" ry="14" fill="#22C55E"/>
  <!-- Belly pattern -->
  <ellipse cx="40" cy="40" rx="10" ry="8" fill="#BBF7D0"/>
  <!-- Eyes -->
  <circle cx="33" cy="34" r="4" fill="white"/><circle cx="33.5" cy="34.5" r="2.5" fill="#D97706"/><ellipse cx="33.5" cy="34.5" rx="1" ry="2.5" fill="#1A1A1A"/><circle cx="34.5" cy="33.5" r="1" fill="white"/>
  <circle cx="47" cy="34" r="4" fill="white"/><circle cx="47.5" cy="34.5" r="2.5" fill="#D97706"/><ellipse cx="47.5" cy="34.5" rx="1" ry="2.5" fill="#1A1A1A"/><circle cx="48.5" cy="33.5" r="1" fill="white"/>
  <!-- Tongue -->
  <path d="M40 44v5l-2 2M40 49l2 2" stroke="#EF4444" stroke-width="1.2" stroke-linecap="round" fill="none"/>
  <!-- Scale pattern -->
  <circle cx="30" cy="42" r="1.5" fill="#16A34A" opacity="0.3"/>
  <circle cx="40" cy="44" r="1.5" fill="#16A34A" opacity="0.3"/>
  <circle cx="50" cy="42" r="1.5" fill="#16A34A" opacity="0.3"/>
  <circle cx="26" cy="48" r="3" fill="#F9A8D4" opacity="0.2"/>
  <circle cx="54" cy="48" r="3" fill="#F9A8D4" opacity="0.2"/>
</svg>
