<svg xmlns="http://www.w3.org/2000/svg" viewBox="0 0 80 80" fill="none">
  <defs><radialGradient id="b11" cx="50%" cy="40%" r="50%"><stop offset="0%" stop-color="#F5D0FE"/><stop offset="100%" stop-color="#E879F9"/></radialGradient></defs>
  <circle cx="40" cy="40" r="40" fill="url(#b11)"/>
  <!-- 개 (Dog) -->
  <ellipse cx="40" cy="44" rx="22" ry="19" fill="#D4A06A"/>
  <!-- Floppy ears -->
  <ellipse cx="14" cy="36" rx="8" ry="14" fill="#B8854A" transform="rotate(-15 14 36)"/>
  <ellipse cx="66" cy="36" rx="8" ry="14" fill="#B8854A" transform="rotate(15 66 36)"/>
  <!-- Snout -->
  <ellipse cx="40" cy="50" rx="10" ry="7" fill="#E8CCA8"/>
  <!-- Eyes -->
  <circle cx="32" cy="40" r="4" fill="white"/><circle cx="32.5" cy="40.5" r="2.5" fill="#3B2506"/><circle cx="33.5" cy="39.5" r="1" fill="white"/>
  <circle cx="48" cy="40" r="4" fill="white"/><circle cx="48.5" cy="40.5" r="2.5" fill="#3B2506"/><circle cx="49.5" cy="39.5" r="1" fill="white"/>
  <!-- Nose -->
  <ellipse cx="40" cy="48" rx="3.5" ry="2.5" fill="#3B2506"/>
  <!-- Mouth -->
  <path d="M40 50.5v3" stroke="#6B4A2A" stroke-width="1" stroke-linecap="round"/>
  <path d="M37 53c1.5 1 4.5 1 6 0" stroke="#6B4A2A" stroke-width="1" stroke-linecap="round" fill="none"/>
  <!-- Tongue -->
  <ellipse cx="42" cy="55" rx="2.5" ry="2" fill="#F0A0A0"/>
  <circle cx="26" cy="48" r="3" fill="#F9A8D4" opacity="0.25"/>
  <circle cx="54" cy="48" r="3" fill="#F9A8D4" opacity="0.25"/>
</svg>
