<svg xmlns="http://www.w3.org/2000/svg" viewBox="0 0 80 80" fill="none">
  <defs><radialGradient id="b14" cx="50%" cy="40%" r="50%"><stop offset="0%" stop-color="#DBEAFE"/><stop offset="100%" stop-color="#93C5FD"/></radialGradient></defs>
  <circle cx="40" cy="40" r="40" fill="url(#b14)"/>
  <!-- Sushi (Nigiri) -->
  <ellipse cx="40" cy="50" rx="22" ry="10" fill="white"/>
  <!-- Rice texture -->
  <ellipse cx="40" cy="50" rx="20" ry="8.5" fill="#FFF8F0"/>
  <!-- Salmon on top -->
  <ellipse cx="40" cy="42" rx="18" ry="8" fill="#FB923C"/>
  <path d="M22 42c4-2 14-6 18-6s14 4 18 6" fill="#F97316"/>
  <!-- Fish detail lines -->
  <path d="M28 40c4 1 8 1 12 0" stroke="#FDBA74" stroke-width="0.5" fill="none" opacity="0.6"/>
  <path d="M34 38c4 1 8 1 12 0" stroke="#FDBA74" stroke-width="0.5" fill="none" opacity="0.6"/>
  <!-- Nori band -->
  <rect x="36" y="40" width="8" height="18" rx="1" fill="#1A3A1A"/>
  <!-- Eyes -->
  <circle cx="33" cy="42" r="2.5" fill="white"/><circle cx="33.5" cy="42.5" r="1.5" fill="#1A1A1A"/><circle cx="34" cy="42" r="0.6" fill="white"/>
  <circle cx="47" cy="42" r="2.5" fill="white"/><circle cx="47.5" cy="42.5" r="1.5" fill="#1A1A1A"/><circle cx="48" cy="42" r="0.6" fill="white"/>
  <!-- Smile -->
  <path d="M38 46c1 1 3 1 4 0" stroke="#92400E" stroke-width="0.7" stroke-linecap="round" fill="none"/>
</svg>