<svg xmlns="http://www.w3.org/2000/svg" viewBox="0 0 80 80" fill="none">
  <defs><radialGradient id="b15" cx="50%" cy="40%" r="50%"><stop offset="0%" stop-color="#FEE2E2"/><stop offset="100%" stop-color="#FCA5A5"/></radialGradient></defs>
  <circle cx="40" cy="40" r="40" fill="url(#b15)"/>
  <!-- Burger -->
  <!-- Top bun -->
  <path d="M16 38c0-12 10-18 24-18s24 6 24 18H16z" fill="#D97706"/>
  <!-- Sesame seeds -->
  <ellipse cx="30" cy="28" rx="2" ry="1.2" fill="#FEF3C7" transform="rotate(-20 30 28)"/>
  <ellipse cx="40" cy="24" rx="2" ry="1.2" fill="#FEF3C7" transform="rotate(10 40 24)"/>
  <ellipse cx="50" cy="29" rx="2" ry="1.2" fill="#FEF3C7" transform="rotate(15 50 29)"/>
  <!-- Lettuce -->
  <path d="M14 40c2-3 6-2 10-3s8 2 12-1 8 2 12-1 8 3 12 1 4 2 6 4H14z" fill="#4ADE80"/>
  <!-- Cheese -->
  <path d="M14 42h52l2 4H12l2-4z" fill="#FBBF24"/>
  <path d="M12 46l4 4" stroke="#FBBF24" stroke-width="2" fill="none"/>
  <path d="M66 46l-4 4" stroke="#FBBF24" stroke-width="2" fill="none"/>
  <!-- Patty -->
  <rect x="14" y="44" width="52" height="8" rx="3" fill="#7C2D12"/>
  <!-- Bottom bun -->
  <path d="M16 52h48c0 8-10 12-24 12S16 60 16 52z" fill="#D97706"/>
  <!-- Eyes -->
  <circle cx="32" cy="34" r="2.5" fill="white"/><circle cx="32.5" cy="34.5" r="1.5" fill="#1A1A1A"/><circle cx="33" cy="34" r="0.6" fill="white"/>
  <circle cx="48" cy="34" r="2.5" fill="white"/><circle cx="48.5" cy="34.5" r="1.5" fill="#1A1A1A"/><circle cx="49" cy="34" r="0.6" fill="white"/>
  <!-- Smile -->
  <path d="M37 36c1.5 1.5 4.5 1.5 6 0" stroke="#451A03" stroke-width="0.8" stroke-linecap="round" fill="none"/>
</svg>