<svg xmlns="http://www.w3.org/2000/svg" viewBox="0 0 80 80" fill="none">
  <defs><radialGradient id="b18" cx="50%" cy="40%" r="50%"><stop offset="0%" stop-color="#FCE7F3"/><stop offset="100%" stop-color="#F9A8D4"/></radialGradient></defs>
  <circle cx="40" cy="40" r="40" fill="url(#b18)"/>
  <!-- Cake -->
  <!-- Bottom layer -->
  <rect x="18" y="44" width="44" height="18" rx="3" fill="#F9A8D4"/>
  <!-- Top layer -->
  <rect x="22" y="32" width="36" height="14" rx="3" fill="#FBCFE8"/>
  <!-- Frosting drip -->
  <path d="M22 32c0 0 4 4 8 2s6-2 10 0 6-2 10 0 6-3 8-2" fill="#FBCFE8"/>
  <!-- Cream top -->
  <path d="M22 32c2-3 6-2 8-4s6 2 10-1 6 3 10 1 6 2 8 4" fill="white"/>
  <!-- Strawberry -->
  <circle cx="40" cy="26" r="5" fill="#EF4444"/>
  <path d="M38 22l2-3 2 3" fill="#22C55E"/>
  <!-- Candle -->
  <rect x="39" y="18" width="2" height="8" rx="0.5" fill="#FBBF24"/>
  <ellipse cx="40" cy="17" rx="2" ry="3" fill="#FB923C" opacity="0.8"/>
  <ellipse cx="40" cy="16" rx="1" ry="2" fill="#FBBF24"/>
  <!-- Eyes -->
  <circle cx="33" cy="40" r="2.5" fill="white"/><circle cx="33.5" cy="40.5" r="1.5" fill="#1A1A1A"/><circle cx="34" cy="40" r="0.6" fill="white"/>
  <circle cx="47" cy="40" r="2.5" fill="white"/><circle cx="47.5" cy="40.5" r="1.5" fill="#1A1A1A"/><circle cx="48" cy="40" r="0.6" fill="white"/>
  <!-- Smile -->
  <path d="M37 44c1.5 1.5 4.5 1.5 6 0" stroke="#9D174D" stroke-width="0.8" stroke-linecap="round" fill="none"/>
  <!-- Blush -->
  <circle cx="28" cy="42" r="3" fill="#F472B6" opacity="0.2"/>
  <circle cx="52" cy="42" r="3" fill="#F472B6" opacity="0.2"/>
</svg>