<svg xmlns="http://www.w3.org/2000/svg" viewBox="0 0 80 80" fill="none">
  <defs><radialGradient id="b25" cx="50%" cy="40%" r="50%"><stop offset="0%" stop-color="#DBEAFE"/><stop offset="100%" stop-color="#93C5FD"/></radialGradient></defs>
  <circle cx="40" cy="40" r="40" fill="url(#b25)"/>
  <!-- Eiffel Tower (Paris) -->
  <path d="M40 8L28 64h24L40 8z" fill="#9CA3AF"/>
  <path d="M40 8L30 64h20L40 8z" fill="#D1D5DB"/>
  <!-- Legs -->
  <path d="M30 64l-8 10h10" fill="#9CA3AF"/>
  <path d="M50 64l8 10h-10" fill="#9CA3AF"/>
  <!-- Cross beams -->
  <rect x="33" y="28" width="14" height="3" rx="0.5" fill="#6B7280"/>
  <rect x="30" y="44" width="20" height="3" rx="0.5" fill="#6B7280"/>
  <!-- Platform -->
  <rect x="28" y="54" width="24" height="4" rx="1" fill="#6B7280"/>
  <!-- Antenna -->
  <line x1="40" y1="8" x2="40" y2="4" stroke="#6B7280" stroke-width="1.5"/>
  <!-- Eyes -->
  <circle cx="36" cy="36" r="2" fill="white"/><circle cx="36.3" cy="36.3" r="1.2" fill="#1A1A1A"/><circle cx="36.8" cy="36" r="0.5" fill="white"/>
  <circle cx="44" cy="36" r="2" fill="white"/><circle cx="44.3" cy="36.3" r="1.2" fill="#1A1A1A"/><circle cx="44.8" cy="36" r="0.5" fill="white"/>
  <!-- Smile -->
  <path d="M38 40c1 1 3 1 4 0" stroke="#374151" stroke-width="0.7" stroke-linecap="round" fill="none"/>
</svg>