<svg xmlns="http://www.w3.org/2000/svg" viewBox="0 0 80 80" fill="none">
  <defs><radialGradient id="b9" cx="50%" cy="40%" r="50%"><stop offset="0%" stop-color="#FECACA"/><stop offset="100%" stop-color="#F87171"/></radialGradient></defs>
  <circle cx="40" cy="40" r="40" fill="url(#b9)"/>
  <!-- 원숭이 (Monkey) -->
  <ellipse cx="40" cy="44" rx="20" ry="18" fill="#C4854A"/>
  <!-- Big ears -->
  <circle cx="14" cy="40" r="9" fill="#C4854A"/><circle cx="14" cy="40" r="6" fill="#F5DEB3"/>
  <circle cx="66" cy="40" r="9" fill="#C4854A"/><circle cx="66" cy="40" r="6" fill="#F5DEB3"/>
  <!-- Face area -->
  <ellipse cx="40" cy="48" rx="15" ry="12" fill="#F5DEB3"/>
  <!-- Eyes -->
  <circle cx="33" cy="42" r="3.5" fill="white"/><circle cx="33.5" cy="42.5" r="2.2" fill="#5C3D2E"/><circle cx="34.5" cy="41.5" r="0.9" fill="white"/>
  <circle cx="47" cy="42" r="3.5" fill="white"/><circle cx="47.5" cy="42.5" r="2.2" fill="#5C3D2E"/><circle cx="48.5" cy="41.5" r="0.9" fill="white"/>
  <!-- Nose -->
  <circle cx="38" cy="49" r="1.5" fill="#8B6E4E"/><circle cx="42" cy="49" r="1.5" fill="#8B6E4E"/>
  <!-- Mouth - cheeky grin -->
  <path d="M34 53c3 3 9 3 12 0" stroke="#8B5A3A" stroke-width="1" stroke-linecap="round" fill="none"/>
  <!-- Hair tuft -->
  <path d="M36 22c2-4 4-4 8 0" stroke="#8B6E4E" stroke-width="3" stroke-linecap="round" fill="none"/>
  <circle cx="28" cy="50" r="3" fill="#F9A8D4" opacity="0.3"/>
  <circle cx="52" cy="50" r="3" fill="#F9A8D4" opacity="0.3"/>
</svg>
