<svg xmlns="http://www.w3.org/2000/svg" viewBox="0 0 80 80" fill="none">
  <defs><radialGradient id="b26" cx="50%" cy="40%" r="50%"><stop offset="0%" stop-color="#DCFCE7"/><stop offset="100%" stop-color="#86EFAC"/></radialGradient></defs>
  <circle cx="40" cy="40" r="40" fill="url(#b26)"/>
  <!-- Statue of Liberty (New York) -->
  <!-- Body/robe -->
  <path d="M30 38v30h20V38" fill="#6EE7B7"/>
  <path d="M28 68h24" stroke="#34D399" stroke-width="2"/>
  <!-- Torso -->
  <ellipse cx="40" cy="38" rx="12" ry="8" fill="#6EE7B7"/>
  <!-- Head -->
  <circle cx="40" cy="26" r="8" fill="#A7F3D0"/>
  <!-- Crown -->
  <path d="M32 22l2-8 3 4 3-6 3 4 3-6 3 4 2-4 1 8" fill="#FBBF24"/>
  <!-- Torch arm -->
  <path d="M50 38l8-18" stroke="#6EE7B7" stroke-width="3" stroke-linecap="round"/>
  <!-- Torch -->
  <rect x="56" y="16" width="4" height="6" rx="1" fill="#D97706"/>
  <ellipse cx="58" cy="14" rx="3" ry="4" fill="#FBBF24"/>
  <ellipse cx="58" cy="13" rx="2" ry="3" fill="#FDE68A"/>
  <!-- Tablet -->
  <rect x="30" y="40" width="6" height="10" rx="1" fill="#A7F3D0" stroke="#34D399" stroke-width="0.5"/>
  <!-- Eyes -->
  <circle cx="37" cy="26" r="2" fill="white"/><circle cx="37.3" cy="26.3" r="1.2" fill="#1A1A1A"/><circle cx="37.8" cy="26" r="0.5" fill="white"/>
  <circle cx="43" cy="26" r="2" fill="white"/><circle cx="43.3" cy="26.3" r="1.2" fill="#1A1A1A"/><circle cx="43.8" cy="26" r="0.5" fill="white"/>
  <!-- Smile -->
  <path d="M38 30c1 1 3 1 4 0" stroke="#065F46" stroke-width="0.7" stroke-linecap="round" fill="none"/>
</svg>