<svg xmlns="http://www.w3.org/2000/svg" viewBox="0 0 80 80" fill="none">
  <defs><radialGradient id="b23" cx="50%" cy="40%" r="50%"><stop offset="0%" stop-color="#FEE2E2"/><stop offset="100%" stop-color="#FCA5A5"/></radialGradient></defs>
  <circle cx="40" cy="40" r="40" fill="url(#b23)"/>
  <!-- Tteokbokki (떡볶이) -->
  <!-- Bowl -->
  <ellipse cx="40" cy="54" rx="26" ry="10" fill="#F5F5F4"/>
  <path d="M14 50c0 0 4 14 26 14s26-14 26-14" fill="#E7E5E4"/>
  <!-- Sauce -->
  <ellipse cx="40" cy="48" rx="24" ry="8" fill="#DC2626"/>
  <!-- Rice cakes (떡) -->
  <rect x="26" y="38" width="6" height="16" rx="3" fill="white" transform="rotate(-15 29 46)"/>
  <rect x="36" y="36" width="6" height="18" rx="3" fill="white" transform="rotate(5 39 45)"/>
  <rect x="46" y="38" width="6" height="16" rx="3" fill="white" transform="rotate(20 49 46)"/>
  <!-- Fish cake -->
  <path d="M30 42c2-4 6-4 8 0" fill="#FBBF24" stroke="#F59E0B" stroke-width="0.5"/>
  <path d="M44 40c2-4 6-4 8 0" fill="#FBBF24" stroke="#F59E0B" stroke-width="0.5"/>
  <!-- Green onion -->
  <ellipse cx="34" cy="44" rx="3" ry="1" fill="#4ADE80"/>
  <ellipse cx="48" cy="46" rx="2.5" ry="1" fill="#4ADE80"/>
  <!-- Eyes (on center rice cake) -->
  <circle cx="37" cy="42" r="2" fill="white"/><circle cx="37.3" cy="42.3" r="1.2" fill="#1A1A1A"/><circle cx="37.8" cy="42" r="0.5" fill="white"/>
  <circle cx="43" cy="42" r="2" fill="white"/><circle cx="43.3" cy="42.3" r="1.2" fill="#1A1A1A"/><circle cx="43.8" cy="42" r="0.5" fill="white"/>
  <!-- Smile -->
  <path d="M38 46c1 1 3 1 4 0" stroke="#7F1D1D" stroke-width="0.7" stroke-linecap="round" fill="none"/>
  <!-- Steam -->
  <path d="M32 32c0-4 2-4 2-8" stroke="#D1D5DB" stroke-width="1" stroke-linecap="round" fill="none" opacity="0.4"/>
  <path d="M40 30c0-4 2-4 2-8" stroke="#D1D5DB" stroke-width="1" stroke-linecap="round" fill="none" opacity="0.4"/>
  <path d="M48 32c0-4 2-4 2-8" stroke="#D1D5DB" stroke-width="1" stroke-linecap="round" fill="none" opacity="0.4"/>
</svg>