<svg xmlns="http://www.w3.org/2000/svg" viewBox="0 0 80 80" fill="none">
  <defs><radialGradient id="b24" cx="50%" cy="40%" r="50%"><stop offset="0%" stop-color="#DCFCE7"/><stop offset="100%" stop-color="#86EFAC"/></radialGradient></defs>
  <circle cx="40" cy="40" r="40" fill="url(#b24)"/>
  <!-- Watermelon slice -->
  <!-- Rind -->
  <path d="M12 50c0-22 12-36 28-36s28 14 28 36H12z" fill="#22C55E"/>
  <!-- White part -->
  <path d="M14 50c0-20 11-32 26-32s26 12 26 32H14z" fill="#BBF7D0"/>
  <!-- Red flesh -->
  <path d="M16 50c0-18 10-28 24-28s24 10 24 28H16z" fill="#EF4444"/>
  <!-- Seeds -->
  <ellipse cx="30" cy="40" rx="1.5" ry="2.5" fill="#1A1A1A" transform="rotate(-10 30 40)"/>
  <ellipse cx="40" cy="36" rx="1.5" ry="2.5" fill="#1A1A1A"/>
  <ellipse cx="50" cy="40" rx="1.5" ry="2.5" fill="#1A1A1A" transform="rotate(10 50 40)"/>
  <ellipse cx="34" cy="46" rx="1.5" ry="2.5" fill="#1A1A1A" transform="rotate(-5 34 46)"/>
  <ellipse cx="46" cy="46" rx="1.5" ry="2.5" fill="#1A1A1A" transform="rotate(5 46 46)"/>
  <!-- Eyes -->
  <circle cx="33" cy="38" r="2.5" fill="white"/><circle cx="33.5" cy="38.5" r="1.5" fill="#1A1A1A"/><circle cx="34" cy="38" r="0.6" fill="white"/>
  <circle cx="47" cy="38" r="2.5" fill="white"/><circle cx="47.5" cy="38.5" r="1.5" fill="#1A1A1A"/><circle cx="48" cy="38" r="0.6" fill="white"/>
  <!-- Smile -->
  <path d="M37 43c1.5 1.5 4.5 1.5 6 0" stroke="#7F1D1D" stroke-width="0.8" stroke-linecap="round" fill="none"/>
  <!-- Blush -->
  <circle cx="28" cy="42" r="3" fill="#FCA5A5" opacity="0.3"/>
  <circle cx="52" cy="42" r="3" fill="#FCA5A5" opacity="0.3"/>
</svg>