<svg xmlns="http://www.w3.org/2000/svg" viewBox="0 0 80 80" fill="none">
  <defs><radialGradient id="b3" cx="50%" cy="40%" r="50%"><stop offset="0%" stop-color="#FED7AA"/><stop offset="100%" stop-color="#FB923C"/></radialGradient></defs>
  <circle cx="40" cy="40" r="40" fill="url(#b3)"/>
  <!-- 호랑이 (Tiger) -->
  <ellipse cx="40" cy="44" rx="22" ry="20" fill="#F59E0B"/>
  <!-- Ears -->
  <path d="M14 22l8 14 6-8z" fill="#F59E0B"/><path d="M16 24l5 9 4-5z" fill="white"/>
  <path d="M66 22l-8 14-6-8z" fill="#F59E0B"/><path d="M64 24l-5 9-4-5z" fill="white"/>
  <!-- Stripes -->
  <path d="M28 28c2-2 4 0 2 2" stroke="#92400E" stroke-width="2" stroke-linecap="round" fill="none"/>
  <path d="M34 24c1-2 3 0 1 2" stroke="#92400E" stroke-width="2" stroke-linecap="round" fill="none"/>
  <path d="M52 28c-2-2-4 0-2 2" stroke="#92400E" stroke-width="2" stroke-linecap="round" fill="none"/>
  <path d="M46 24c-1-2-3 0-1 2" stroke="#92400E" stroke-width="2" stroke-linecap="round" fill="none"/>
  <!-- White face -->
  <ellipse cx="40" cy="48" rx="14" ry="10" fill="white"/>
  <!-- Eyes -->
  <circle cx="32" cy="42" r="3.5" fill="white"/><circle cx="32.5" cy="42.5" r="2.2" fill="#D97706"/><circle cx="32.5" cy="42.5" rx="1" ry="2.2" fill="#1A1A1A"/><circle cx="33.5" cy="41.5" r="0.8" fill="white"/>
  <circle cx="48" cy="42" r="3.5" fill="white"/><circle cx="48.5" cy="42.5" r="2.2" fill="#D97706"/><circle cx="48.5" cy="42.5" rx="1" ry="2.2" fill="#1A1A1A"/><circle cx="49.5" cy="41.5" r="0.8" fill="white"/>
  <!-- Nose -->
  <ellipse cx="40" cy="48" rx="3" ry="2" fill="#F0A0A0"/>
  <!-- Mouth -->
  <path d="M40 50v1.5" stroke="#C08080" stroke-width="0.8" stroke-linecap="round"/>
  <path d="M37 51.5c1.5 1 4.5 1 6 0" stroke="#C08080" stroke-width="0.8" stroke-linecap="round" fill="none"/>
  <!-- Whiskers -->
  <line x1="16" y1="46" x2="28" y2="48" stroke="#D4A06A" stroke-width="0.6"/><line x1="16" y1="50" x2="28" y2="50" stroke="#D4A06A" stroke-width="0.6"/>
  <line x1="52" y1="48" x2="64" y2="46" stroke="#D4A06A" stroke-width="0.6"/><line x1="52" y1="50" x2="64" y2="50" stroke="#D4A06A" stroke-width="0.6"/>
</svg>
