<svg xmlns="http://www.w3.org/2000/svg" viewBox="0 0 80 80" fill="none">
  <defs><radialGradient id="b31" cx="50%" cy="40%" r="50%"><stop offset="0%" stop-color="#FEF9C3"/><stop offset="100%" stop-color="#FDE047"/></radialGradient></defs>
  <circle cx="40" cy="40" r="40" fill="url(#b31)"/>
  <!-- Leaning Tower of Pisa -->
  <!-- Tower body (tilted) -->
  <g transform="rotate(-8 40 68)">
    <rect x="30" y="14" width="20" height="54" rx="2" fill="white" stroke="#D1D5DB" stroke-width="0.5"/>
    <!-- Columns/levels -->
    <rect x="30" y="22" width="20" height="2" fill="#E5E7EB"/>
    <rect x="30" y="30" width="20" height="2" fill="#E5E7EB"/>
    <rect x="30" y="38" width="20" height="2" fill="#E5E7EB"/>
    <rect x="30" y="46" width="20" height="2" fill="#E5E7EB"/>
    <rect x="30" y="54" width="20" height="2" fill="#E5E7EB"/>
    <!-- Arches on each level -->
    <path d="M32 24c1-2 3-2 4 0" stroke="#D1D5DB" stroke-width="0.5" fill="none"/>
    <path d="M38 24c1-2 3-2 4 0" stroke="#D1D5DB" stroke-width="0.5" fill="none"/>
    <path d="M44 24c1-2 3-2 4 0" stroke="#D1D5DB" stroke-width="0.5" fill="none"/>
    <path d="M32 32c1-2 3-2 4 0" stroke="#D1D5DB" stroke-width="0.5" fill="none"/>
    <path d="M38 32c1-2 3-2 4 0" stroke="#D1D5DB" stroke-width="0.5" fill="none"/>
    <path d="M44 32c1-2 3-2 4 0" stroke="#D1D5DB" stroke-width="0.5" fill="none"/>
    <!-- Top dome -->
    <path d="M34 14c0-4 2-6 6-6s6 2 6 6" fill="white" stroke="#D1D5DB" stroke-width="0.5"/>
  </g>
  <!-- Eyes -->
  <circle cx="35" cy="38" r="2" fill="white"/><circle cx="35.3" cy="38.3" r="1.2" fill="#1A1A1A"/><circle cx="35.8" cy="38" r="0.5" fill="white"/>
  <circle cx="43" cy="36" r="2" fill="white"/><circle cx="43.3" cy="36.3" r="1.2" fill="#1A1A1A"/><circle cx="43.8" cy="36" r="0.5" fill="white"/>
  <!-- Smile -->
  <path d="M37 42c1 1 3 1 4 0" stroke="#78350F" stroke-width="0.7" stroke-linecap="round" fill="none"/>
</svg>