<svg xmlns="http://www.w3.org/2000/svg" viewBox="0 0 80 80" fill="none">
  <defs><radialGradient id="b28" cx="50%" cy="40%" r="50%"><stop offset="0%" stop-color="#FEE2E2"/><stop offset="100%" stop-color="#FCA5A5"/></radialGradient></defs>
  <circle cx="40" cy="40" r="40" fill="url(#b28)"/>
  <!-- Tokyo Tower -->
  <!-- Main structure -->
  <path d="M40 6L24 70h32L40 6z" fill="#EF4444"/>
  <path d="M40 6L26 70h28L40 6z" fill="#F87171"/>
  <!-- White bands -->
  <rect x="32" y="24" width="16" height="4" fill="white"/>
  <rect x="28" y="40" width="24" height="4" fill="white"/>
  <rect x="26" y="56" width="28" height="4" fill="white"/>
  <!-- Observation deck -->
  <rect x="30" y="32" width="20" height="6" rx="1" fill="#DC2626"/>
  <!-- Antenna -->
  <line x1="40" y1="6" x2="40" y2="2" stroke="#EF4444" stroke-width="1.5"/>
  <!-- Legs -->
  <path d="M26 70l-4 6h8" fill="#DC2626"/>
  <path d="M54 70l4 6h-8" fill="#DC2626"/>
  <!-- Eyes -->
  <circle cx="37" cy="35" r="1.8" fill="white"/><circle cx="37.3" cy="35.3" r="1.1" fill="#1A1A1A"/><circle cx="37.7" cy="35" r="0.4" fill="white"/>
  <circle cx="43" cy="35" r="1.8" fill="white"/><circle cx="43.3" cy="35.3" r="1.1" fill="#1A1A1A"/><circle cx="43.7" cy="35" r="0.4" fill="white"/>
  <!-- Smile -->
  <path d="M38 38c1 0.8 3 0.8 4 0" stroke="white" stroke-width="0.7" stroke-linecap="round" fill="none"/>
</svg>