<svg xmlns="http://www.w3.org/2000/svg" viewBox="0 0 80 80" fill="none">
  <defs><radialGradient id="b17" cx="50%" cy="40%" r="50%"><stop offset="0%" stop-color="#FFF7ED"/><stop offset="100%" stop-color="#FDBA74"/></radialGradient></defs>
  <circle cx="40" cy="40" r="40" fill="url(#b17)"/>
  <!-- Ramen Bowl -->
  <ellipse cx="40" cy="52" rx="28" ry="14" fill="white"/>
  <ellipse cx="40" cy="52" rx="26" ry="12" fill="#FEF3C7"/>
  <!-- Broth -->
  <ellipse cx="40" cy="50" rx="24" ry="10" fill="#F59E0B" opacity="0.3"/>
  <!-- Noodles -->
  <path d="M24 48c4 2 8-2 12 0s8 2 12 0 8-2 12 0" stroke="#FBBF24" stroke-width="2" fill="none"/>
  <path d="M26 52c4 2 8-2 12 0s8 2 12 0" stroke="#FBBF24" stroke-width="2" fill="none"/>
  <!-- Egg -->
  <ellipse cx="50" cy="44" rx="6" ry="5" fill="white"/>
  <circle cx="50" cy="44" r="3" fill="#FBBF24"/>
  <!-- Nori -->
  <rect x="26" y="40" width="6" height="10" rx="1" fill="#1A3A1A"/>
  <!-- Narutomaki -->
  <circle cx="40" cy="44" r="4" fill="#FFF"/>
  <path d="M38 44c0-1 1-2 2-2s2 1 2 0 1-2 0-2" stroke="#F472B6" stroke-width="1" fill="none"/>
  <!-- Chopsticks -->
  <line x1="54" y1="22" x2="34" y2="48" stroke="#D97706" stroke-width="1.5" stroke-linecap="round"/>
  <line x1="58" y1="22" x2="38" y2="48" stroke="#D97706" stroke-width="1.5" stroke-linecap="round"/>
  <!-- Eyes -->
  <circle cx="34" cy="46" r="2" fill="white"/><circle cx="34.3" cy="46.3" r="1.2" fill="#1A1A1A"/><circle cx="34.8" cy="46" r="0.5" fill="white"/>
  <circle cx="46" cy="46" r="2" fill="white"/><circle cx="46.3" cy="46.3" r="1.2" fill="#1A1A1A"/><circle cx="46.8" cy="46" r="0.5" fill="white"/>
  <!-- Steam -->
  <path d="M30 30c0-4 2-4 2-8" stroke="#D1D5DB" stroke-width="1" stroke-linecap="round" fill="none" opacity="0.5"/>
  <path d="M40 28c0-4 2-4 2-8" stroke="#D1D5DB" stroke-width="1" stroke-linecap="round" fill="none" opacity="0.5"/>
  <path d="M50 30c0-4 2-4 2-8" stroke="#D1D5DB" stroke-width="1" stroke-linecap="round" fill="none" opacity="0.5"/>
</svg>