<svg xmlns="http://www.w3.org/2000/svg" viewBox="0 0 80 80" fill="none">
  <defs><radialGradient id="b36" cx="50%" cy="40%" r="50%"><stop offset="0%" stop-color="#FEF3C7"/><stop offset="100%" stop-color="#FCD34D"/></radialGradient></defs>
  <circle cx="40" cy="40" r="40" fill="url(#b36)"/>
  <!-- Pyramids of Egypt -->
  <!-- Big pyramid -->
  <path d="M10 64l28-40 28 40H10z" fill="#D97706"/>
  <path d="M38 24l28 40H38V24z" fill="#F59E0B"/>
  <!-- Small pyramid (behind) -->
  <path d="M48 64l16-24 16 24H48z" fill="#B45309" opacity="0.6"/>
  <!-- Sand dunes -->
  <path d="M0 68c10-4 20-2 30-4s20 2 30 0 10-2 20 0v12H0z" fill="#FBBF24" opacity="0.3"/>
  <!-- Pyramid brick lines -->
  <line x1="20" y1="52" x2="56" y2="52" stroke="#B45309" stroke-width="0.3"/>
  <line x1="26" y1="44" x2="50" y2="44" stroke="#B45309" stroke-width="0.3"/>
  <line x1="32" y1="36" x2="44" y2="36" stroke="#B45309" stroke-width="0.3"/>
  <!-- Sun -->
  <circle cx="64" cy="16" r="6" fill="#FBBF24"/>
  <circle cx="64" cy="16" r="4" fill="#FDE68A"/>
  <!-- Eyes -->
  <circle cx="33" cy="48" r="2.5" fill="white"/><circle cx="33.5" cy="48.5" r="1.5" fill="#1A1A1A"/><circle cx="34" cy="48" r="0.6" fill="white"/>
  <circle cx="43" cy="48" r="2.5" fill="white"/><circle cx="43.5" cy="48.5" r="1.5" fill="#1A1A1A"/><circle cx="44" cy="48" r="0.6" fill="white"/>
  <!-- Smile -->
  <path d="M36 53c1.5 1 4.5 1 6 0" stroke="#78350F" stroke-width="0.7" stroke-linecap="round" fill="none"/>
</svg>