<svg xmlns="http://www.w3.org/2000/svg" viewBox="0 0 80 80" fill="none">
  <defs><radialGradient id="b19" cx="50%" cy="40%" r="50%"><stop offset="0%" stop-color="#E0F2FE"/><stop offset="100%" stop-color="#7DD3FC"/></radialGradient></defs>
  <circle cx="40" cy="40" r="40" fill="url(#b19)"/>
  <!-- Ice Cream Cone -->
  <!-- Cone -->
  <path d="M28 46l12 22 12-22" fill="#D97706"/>
  <path d="M30 48l10 18 10-18" fill="#F59E0B"/>
  <!-- Waffle pattern -->
  <line x1="32" y1="50" x2="48" y2="50" stroke="#D97706" stroke-width="0.5"/>
  <line x1="34" y1="54" x2="46" y2="54" stroke="#D97706" stroke-width="0.5"/>
  <line x1="36" y1="58" x2="44" y2="58" stroke="#D97706" stroke-width="0.5"/>
  <line x1="35" y1="48" x2="38" y2="62" stroke="#D97706" stroke-width="0.5"/>
  <line x1="45" y1="48" x2="42" y2="62" stroke="#D97706" stroke-width="0.5"/>
  <!-- Bottom scoop (Strawberry) -->
  <circle cx="40" cy="38" r="14" fill="#F472B6"/>
  <!-- Middle scoop (Vanilla) -->
  <circle cx="36" cy="26" r="10" fill="#FEF3C7"/>
  <!-- Top scoop (Chocolate) -->
  <circle cx="46" cy="26" r="9" fill="#92400E"/>
  <!-- Cherry on top -->
  <circle cx="46" cy="16" r="3" fill="#DC2626"/>
  <path d="M46 14c0-3 3-4 4-3" stroke="#15803D" stroke-width="1" fill="none"/>
  <!-- Eyes -->
  <circle cx="34" cy="38" r="2.5" fill="white"/><circle cx="34.5" cy="38.5" r="1.5" fill="#1A1A1A"/><circle cx="35" cy="38" r="0.6" fill="white"/>
  <circle cx="46" cy="38" r="2.5" fill="white"/><circle cx="46.5" cy="38.5" r="1.5" fill="#1A1A1A"/><circle cx="47" cy="38" r="0.6" fill="white"/>
  <!-- Smile -->
  <path d="M38 42c1 1 3 1 4 0" stroke="#9D174D" stroke-width="0.8" stroke-linecap="round" fill="none"/>
</svg>