<svg xmlns="http://www.w3.org/2000/svg" viewBox="0 0 80 80" fill="none">
  <defs><radialGradient id="b20" cx="50%" cy="40%" r="50%"><stop offset="0%" stop-color="#FECDD3"/><stop offset="100%" stop-color="#FDA4AF"/></radialGradient></defs>
  <circle cx="40" cy="40" r="40" fill="url(#b20)"/>
  <!-- Donut -->
  <!-- Outer ring -->
  <circle cx="40" cy="42" r="20" fill="#D97706"/>
  <!-- Glaze -->
  <circle cx="40" cy="40" r="20" fill="#F472B6"/>
  <!-- Hole -->
  <circle cx="40" cy="40" r="7" fill="url(#b20)"/>
  <!-- Sprinkles -->
  <rect x="28" y="30" width="4" height="1.5" rx="0.5" fill="#FBBF24" transform="rotate(-30 30 30)"/>
  <rect x="46" y="28" width="4" height="1.5" rx="0.5" fill="#34D399" transform="rotate(20 48 28)"/>
  <rect x="52" y="38" width="4" height="1.5" rx="0.5" fill="#60A5FA" transform="rotate(-10 54 38)"/>
  <rect x="24" y="40" width="4" height="1.5" rx="0.5" fill="#F87171" transform="rotate(40 26 40)"/>
  <rect x="50" y="48" width="4" height="1.5" rx="0.5" fill="#A78BFA" transform="rotate(-25 52 48)"/>
  <rect x="30" y="50" width="4" height="1.5" rx="0.5" fill="#FBBF24" transform="rotate(15 32 50)"/>
  <rect x="44" y="52" width="4" height="1.5" rx="0.5" fill="#34D399" transform="rotate(-45 46 52)"/>
  <rect x="36" y="26" width="4" height="1.5" rx="0.5" fill="#60A5FA" transform="rotate(30 38 26)"/>
  <!-- Eyes -->
  <circle cx="34" cy="38" r="2.5" fill="white"/><circle cx="34.5" cy="38.5" r="1.5" fill="#1A1A1A"/><circle cx="35" cy="38" r="0.6" fill="white"/>
  <circle cx="46" cy="38" r="2.5" fill="white"/><circle cx="46.5" cy="38.5" r="1.5" fill="#1A1A1A"/><circle cx="47" cy="38" r="0.6" fill="white"/>
  <!-- Smile -->
  <path d="M37 44c1.5 1.5 4.5 1.5 6 0" stroke="#831843" stroke-width="0.8" stroke-linecap="round" fill="none"/>
</svg>