<svg xmlns="http://www.w3.org/2000/svg" viewBox="0 0 80 80" fill="none">
  <defs><radialGradient id="b10" cx="50%" cy="40%" r="50%"><stop offset="0%" stop-color="#CCFBF1"/><stop offset="100%" stop-color="#2DD4BF"/></radialGradient></defs>
  <circle cx="40" cy="40" r="40" fill="url(#b10)"/>
  <!-- 닭 (Rooster) -->
  <ellipse cx="40" cy="48" rx="20" ry="18" fill="white"/>
  <!-- Head -->
  <circle cx="40" cy="32" r="16" fill="white"/>
  <!-- Comb -->
  <path d="M32 18c2-4 4-2 4 0s2-4 4-2 2 4 4 2 0 4 2 6H32c0-2 0-4 0-6z" fill="#EF4444"/>
  <!-- Wattle -->
  <path d="M38 46c1 3-1 5-2 4" fill="#EF4444"/>
  <path d="M42 46c-1 3 1 5 2 4" fill="#EF4444"/>
  <!-- Eyes -->
  <circle cx="33" cy="32" r="3.5" fill="white"/><circle cx="33.5" cy="32.5" r="2.2" fill="#1A1A1A"/><circle cx="34.5" cy="31.5" r="0.9" fill="white"/>
  <circle cx="47" cy="32" r="3.5" fill="white"/><circle cx="47.5" cy="32.5" r="2.2" fill="#1A1A1A"/><circle cx="48.5" cy="31.5" r="0.9" fill="white"/>
  <!-- Beak -->
  <path d="M36 38l4 5 4-5z" fill="#FB923C"/>
  <!-- Wing hints -->
  <ellipse cx="20" cy="52" rx="6" ry="10" fill="#FDE68A" opacity="0.6" transform="rotate(-15 20 52)"/>
  <ellipse cx="60" cy="52" rx="6" ry="10" fill="#FDE68A" opacity="0.6" transform="rotate(15 60 52)"/>
  <!-- Tail feathers -->
  <path d="M56 56c6-4 10-10 8-16" stroke="#22C55E" stroke-width="2.5" stroke-linecap="round" fill="none"/>
  <path d="M58 58c6-2 10-8 10-14" stroke="#2563EB" stroke-width="2.5" stroke-linecap="round" fill="none"/>
  <path d="M54 58c8-2 12-6 12-12" stroke="#EF4444" stroke-width="2.5" stroke-linecap="round" fill="none"/>
</svg>
