<svg xmlns="http://www.w3.org/2000/svg" viewBox="0 0 80 80" fill="none">
  <defs><radialGradient id="b34" cx="50%" cy="40%" r="50%"><stop offset="0%" stop-color="#FEF3C7"/><stop offset="100%" stop-color="#FCD34D"/></radialGradient></defs>
  <circle cx="40" cy="40" r="40" fill="url(#b34)"/>
  <!-- Colosseum (Rome) -->
  <!-- Main elliptical structure -->
  <ellipse cx="40" cy="46" rx="28" ry="18" fill="#D4A06A"/>
  <ellipse cx="40" cy="44" rx="28" ry="18" fill="#E8CCA8"/>
  <!-- Inner opening -->
  <ellipse cx="40" cy="44" rx="18" ry="10" fill="#C4854A"/>
  <!-- Top row arches -->
  <path d="M16 36c1-2 3-2 4 0" stroke="#D4A06A" stroke-width="0.8" fill="none"/>
  <path d="M22 33c1-2 3-2 4 0" stroke="#D4A06A" stroke-width="0.8" fill="none"/>
  <path d="M28 31c1-2 3-2 4 0" stroke="#D4A06A" stroke-width="0.8" fill="none"/>
  <path d="M34 30c1-2 3-2 4 0" stroke="#D4A06A" stroke-width="0.8" fill="none"/>
  <path d="M40 30c1-2 3-2 4 0" stroke="#D4A06A" stroke-width="0.8" fill="none"/>
  <path d="M46 30c1-2 3-2 4 0" stroke="#D4A06A" stroke-width="0.8" fill="none"/>
  <path d="M52 31c1-2 3-2 4 0" stroke="#D4A06A" stroke-width="0.8" fill="none"/>
  <path d="M58 34c1-2 3-2 4 0" stroke="#D4A06A" stroke-width="0.8" fill="none"/>
  <!-- Bottom row arches -->
  <path d="M18 44c1.5-3 4-3 5.5 0" stroke="#D4A06A" stroke-width="0.8" fill="none"/>
  <path d="M26 42c1.5-3 4-3 5.5 0" stroke="#D4A06A" stroke-width="0.8" fill="none"/>
  <path d="M50 42c1.5-3 4-3 5.5 0" stroke="#D4A06A" stroke-width="0.8" fill="none"/>
  <path d="M58 44c1.5-3 4-3 5.5 0" stroke="#D4A06A" stroke-width="0.8" fill="none"/>
  <!-- Broken section (right side) -->
  <path d="M62 30c2 4 4 10 4 18" stroke="#C4854A" stroke-width="1" fill="none"/>
  <!-- Eyes -->
  <circle cx="35" cy="42" r="2.5" fill="white"/><circle cx="35.5" cy="42.5" r="1.5" fill="#1A1A1A"/><circle cx="36" cy="42" r="0.6" fill="white"/>
  <circle cx="45" cy="42" r="2.5" fill="white"/><circle cx="45.5" cy="42.5" r="1.5" fill="#1A1A1A"/><circle cx="46" cy="42" r="0.6" fill="white"/>
  <!-- Smile -->
  <path d="M38 47c1 1 3 1 4 0" stroke="#78350F" stroke-width="0.7" stroke-linecap="round" fill="none"/>
</svg>